#!OML:ASF H:\Punching\Project 1\Capture day 1\Session 1\female.ASF
:FULLY-SPECIFIED
:DEGREES
1411
root -0.813899 15.8301 -3.13053 -175.2 279.588 -171.84
lowerback -5.19715 0.481403 -2.28749
upperback -6.48894 0.417028 -1.37497
thorax -3.80071 0.168413 -0.125053
lowerneck -8.24506 12.5007 18.2581
upperneck 33.6487 18.1207 -14.1081
head 16.7818 7.98274 -6.10043
rclavicle -2.76808e-014 -1.35174e-014
rhumerus -34.4987 13.7441 -88.5568
rradius 37.0051
rwrist -2.34727
rhand -15.5904 -3.14381
rfingers 7.12502
rthumb 10.5953 -32.8567
lclavicle -2.76808e-014 -1.35174e-014
lhumerus -45.5597 -10.1491 85.2437
lradius 63.6417
lwrist -6.21023
lhand -8.171 11.1198
lfingers 7.12502
lthumb 17.7443 40.3302
rfemur -32.0047 20.93 8.48731
rtibia 41.8412
rfoot -26.1455 8.86552
rtoes -22.6123
lfemur -21.1528 -12.2039 -22.5164
ltibia 22.576
lfoot -17.0272 -13.2165
ltoes 1.53097
1412
root -0.824621 15.8293 -3.19177 -177.402 277.911 -169.542
lowerback -5.15544 0.464234 -2.07621
upperback -6.47072 0.397648 -1.32127
thorax -3.80201 0.154337 -0.188367
lowerneck -8.22768 12.5259 18.2132
upperneck 33.5853 18.2278 -14.1825
head 16.7749 8.02715 -6.09697
rclavicle -1.92573e-014 -3.18055e-015
rhumerus -34.701 13.4356 -88.1284
rradius 36.7777
rwrist -2.13787
rhand -15.5512 -3.01365
rfingers 7.12502
rthumb 10.6331 -32.7246
lclavicle -1.92573e-014 -3.18055e-015
lhumerus -45.5019 -10.0589 85.1868
lradius 63.6968
lwrist -6.21685
lhand -8.32071 11.1975
lfingers 7.12502
lthumb 17.6002 40.4209
rfemur -32.0015 21.6912 8.10452
rtibia 40.6164
rfoot -26.8055 9.7197
rtoes -23.2416
lfemur -21.5121 -12.8174 -22.0487
ltibia 22.9883
lfoot -17.1514 -13.8442
ltoes 1.2609
1413
root -0.835605 15.8283 -3.25157 -180.882 276.243 -165.969
lowerback -5.11404 0.433918 -1.84516
upperback -6.45466 0.360326 -1.25875
thorax -3.8053 0.13056 -0.253958
lowerneck -8.19634 12.5558 18.1756
upperneck 33.5197 18.348 -14.2765
head 16.7712 8.07612 -6.10162
rclavicle -6.65929e-015 -1.51076e-014
rhumerus -34.8935 13.1622 -87.6991
rradius 36.5327
rwrist -1.92743
rhand -15.4093 -2.81689
rfingers 7.12502
rthumb 10.77 -32.5208
lclavicle -6.65929e-015 -1.51076e-014
lhumerus -45.4721 -9.90174 85.0829
lradius 63.7051
lwrist -6.28845
lhand -8.53526 11.3235
lfingers 7.12502
lthumb 17.3938 40.5652
rfemur -31.9677 22.3134 7.784
rtibia 39.4245
rfoot -27.4372 10.6529
rtoes -23.8655
lfemur -21.8838 -13.4621 -21.5728
ltibia 23.3895
lfoot -17.27 -14.4307
ltoes 0.931277
1414
root -0.8467 15.8272 -3.31075 -186.985 274.618 -159.778
lowerback -5.07196 0.40768 -1.59095
upperback -6.44118 0.327445 -1.20374
thorax -3.81182 0.107693 -0.340196
lowerneck -8.15641 12.5797 18.1642
upperneck 33.4575 18.4572 -14.3789
head 16.77 8.12329 -6.1178
rclavicle -1.32192e-014 5.56597e-015
rhumerus -35.0862 12.8642 -87.2803
rradius 36.2768
rwrist -1.71637
rhand -15.2002 -2.58956
rfingers 7.12502
rthumb 10.9717 -32.2829
lclavicle -1.32192e-014 5.56597e-015
lhumerus -45.4625 -9.7339 84.9275
lradius 63.6665
lwrist -6.4161
lhand -8.79257 11.4849
lfingers 7.12502
lthumb 17.1461 40.7484
rfemur -31.9018 22.8245 7.53413
rtibia 38.2768
rfoot -28.0349 11.6102
rtoes -24.4881
lfemur -22.2618 -14.1193 -21.0851
ltibia 23.777
lfoot -17.3746 -15.0005
ltoes 0.54967
1415
root -0.858146 15.8262 -3.36995 -199.234 273.106 -147.451
lowerback -5.03238 0.386458 -1.34613
upperback -6.42259 0.30185 -1.14845
thorax -3.81208 0.0888564 -0.420746
lowerneck -8.11959 12.5979 18.1556
upperneck 33.397 18.5586 -14.4879
head 16.7702 8.16678 -6.13936
rclavicle 7.03201e-015 8.74653e-015
rhumerus -35.2656 12.5266 -86.8501
rradius 36.0043
rwrist -1.47893
rhand -14.9173 -2.30437
rfingers 7.12502
rthumb 11.2445 -31.983
lclavicle 7.03201e-015 8.74653e-015
lhumerus -45.4563 -9.55012 84.7365
lradius 63.5773
lwrist -6.58334
lhand -9.09584 11.6745
lfingers 7.12502
lthumb 16.8542 40.9631
rfemur -31.7971 23.2483 7.3439
rtibia 37.1837
rfoot -28.5799 12.5605
rtoes -25.0494
lfemur -22.6368 -14.7725 -20.6017
ltibia 24.1524
lfoot -17.4585 -15.5848
ltoes 0.200669
1416
root -0.869374 15.8248 -3.42929 -229.553 271.946 -117.078
lowerback -4.97752 0.34878 -1.12309
upperback -6.39281 0.255698 -1.08019
thorax -3.80971 0.0612087 -0.476101
lowerneck -8.07542 12.6197 18.1498
upperneck 33.3255 18.673 -14.6215
head 16.7708 8.2138 -6.16968
rclavicle -9.69075e-016 1.03368e-014
rhumerus -35.427 12.2148 -86.4304
rradius 35.7275
rwrist -1.25001
rhand -14.6817 -2.05226
rfingers 7.12502
rthumb 11.4717 -31.7184
lclavicle -9.69075e-016 1.03368e-014
lhumerus -45.4501 -9.3031 84.4977
lradius 63.4366
lwrist -6.77037
lhand -9.38208 11.8337
lfingers 7.12502
lthumb 16.5786 41.1455
rfemur -31.634 23.5872 7.21624
rtibia 36.1589
rfoot -29.0595 13.4727
rtoes -25.514
lfemur -23.0051 -15.4393 -20.1253
ltibia 24.5201
lfoot -17.5109 -16.2026
ltoes -0.0764624
1417
root -0.880811 15.8233 -3.48866 -281.993 271.982 -64.5827
lowerback -4.94251 0.308571 -0.907437
upperback -6.35574 0.207081 -1.00413
thorax -3.78906 0.0328001 -0.5192
lowerneck -8.02703 12.6388 18.1454
upperneck 33.2446 18.7885 -14.773
head 16.7694 8.26009 -6.20804
rclavicle 1.19271e-015 4.77083e-015
rhumerus -35.5655 11.9041 -86.0064
rradius 35.4457
rwrist -1.01809
rhand -14.4866 -1.84293
rfingers 7.12502
rthumb 11.6599 -31.4985
lclavicle 1.19271e-015 4.77083e-015
lhumerus -45.4304 -9.02247 84.2121
lradius 63.2483
lwrist -6.94261
lhand -9.63227 11.9668
lfingers 7.12502
lthumb 16.3377 41.2986
rfemur -31.4408 23.8516 7.15216
rtibia 35.2126
rfoot -29.4601 14.32
rtoes -25.8844
lfemur -23.3917 -16.0861 -19.6448
ltibia 24.8844
lfoot -17.55 -16.8591
ltoes -0.294525
1418
root -0.891899 15.8218 -3.5495 -310.639 273.182 -35.8774
lowerback -4.92422 0.270272 -0.695027
upperback -6.3159 0.16155 -0.913279
thorax -3.75653 0.00639666 -0.545138
lowerneck -7.9751 12.6568 18.1414
upperneck 33.1587 18.9056 -14.9355
head 16.7671 8.30628 -6.25113
rclavicle -5.45415e-015 4.77083e-015
rhumerus -35.6886 11.6266 -85.5845
rradius 35.1685
rwrist -0.817172
rhand -14.3213 -1.65628
rfingers 7.12502
rthumb 11.8193 -31.3028
lclavicle -5.45415e-015 4.77083e-015
lhumerus -45.3956 -8.70333 83.8783
lradius 63.0105
lwrist -7.11888
lhand -9.8313 12.0633
lfingers 7.12502
lthumb 16.1461 41.4108
rfemur -31.2323 24.0859 7.1615
rtibia 34.3525
rfoot -29.7372 15.1205
rtoes -26.1003
lfemur -23.808 -16.6832 -19.1345
ltibia 25.2542
lfoot -17.5875 -17.5521
ltoes -0.5118
1419
root -0.902838 15.8199 -3.60977 -322.283 274.774 -24.1613
lowerback -4.9278 0.215915 -0.450925
upperback -6.27993 0.0937289 -0.810394
thorax -3.71619 -0.0323705 -0.576771
lowerneck -7.91552 12.6749 18.1334
upperneck 33.0722 19.026 -15.1041
head 16.7644 8.35312 -6.29611
rclavicle 1.75676e-014 -2.38542e-015
rhumerus -35.8066 11.3996 -85.168
rradius 34.9018
rwrist -0.653281
rhand -14.1909 -1.51827
rfingers 7.12502
rthumb 11.945 -31.1575
lclavicle 1.75676e-014 -2.38542e-015
lhumerus -45.3597 -8.34624 83.5006
lradius 62.7309
lwrist -7.30538
lhand -9.9984 12.1412
lfingers 7.12502
lthumb 15.9852 41.5017
rfemur -30.9906 24.2321 7.2509
rtibia 33.5797
rfoot -29.8919 15.8341
rtoes -26.2331
lfemur -24.2782 -17.2879 -18.5888
ltibia 25.6344
lfoot -17.6443 -18.242
ltoes -0.914684
1420
root -0.913649 15.8175 -3.67179 -327.87 276.461 -18.5058
lowerback -4.93369 0.168145 -0.219233
upperback -6.24725 0.0344191 -0.703705
thorax -3.67844 -0.0663546 -0.59749
lowerneck -7.86073 12.6867 18.1311
upperneck 33.0003 19.1331 -15.2641
head 16.7671 8.39564 -6.3419
rclavicle 5.06901e-015 1.86858e-014
rhumerus -35.9245 11.1736 -84.7533
rradius 34.6368
rwrist -0.494637
rhand -14.0724 -1.38397
rfingers 7.12502
rthumb 12.0592 -31.0165
lclavicle 5.06901e-015 1.86858e-014
lhumerus -45.3248 -7.97306 83.0792
lradius 62.4155
lwrist -7.52058
lhand -10.1235 12.1954
lfingers 7.12502
lthumb 15.8647 41.5654
rfemur -30.716 24.3482 7.40736
rtibia 32.8937
rfoot -29.8908 16.4646
rtoes -26.3057
lfemur -24.7732 -17.8495 -18.0265
ltibia 26.0266
lfoot -17.7215 -18.9365
ltoes -1.44789
1421
root -0.924538 15.8145 -3.73506 -331.139 278.206 -15.1699
lowerback -4.94384 0.119939 0.00628738
upperback -6.21815 -0.0259586 -0.596247
thorax -3.64248 -0.100703 -0.614056
lowerneck -7.82428 12.692 18.1195
upperneck 32.9513 19.2241 -15.4016
head 16.7773 8.43138 -6.3801
rclavicle 1.33124e-014 1.39149e-014
rhumerus -36.0394 10.9219 -84.3307
rradius 34.3659
rwrist -0.314918
rhand -13.9718 -1.24108
rfingers 7.12502
rthumb 12.1563 -30.8679
lclavicle 1.33124e-014 1.39149e-014
lhumerus -45.292 -7.61754 82.6284
lradius 62.066
lwrist -7.81611
lhand -10.261 12.2698
lfingers 7.12502
lthumb 15.7323 41.6504
rfemur -30.3997 24.3955 7.62938
rtibia 32.2926
rfoot -29.709 17.0431
rtoes -26.2955
lfemur -25.2991 -18.3959 -17.4513
ltibia 26.4244
lfoot -17.8042 -19.6409
ltoes -2.09007
1422
root -0.935675 15.8106 -3.79922 -333.335 279.997 -12.9203
lowerback -4.94379 0.0666394 0.226117
upperback -6.19194 -0.0935664 -0.492125
thorax -3.61574 -0.138571 -0.631055
lowerneck -7.80666 12.6919 18.0966
upperneck 32.9293 19.2996 -15.5108
head 16.7961 8.46071 -6.40774
rclavicle -1.97045e-014 -5.96354e-015
rhumerus -36.1519 10.6263 -83.9034
rradius 34.0803
rwrist -0.0845915
rhand -13.8708 -1.08014
rfingers 7.12502
rthumb 12.2537 -30.7012
lclavicle -1.97045e-014 -5.96354e-015
lhumerus -45.2664 -7.28782 82.1479
lradius 61.6941
lwrist -8.17679
lhand -10.4004 12.3632
lfingers 7.12502
lthumb 15.598 41.7543
rfemur -30.0269 24.3747 7.90768
rtibia 31.7744
rfoot -29.3209 17.5767
rtoes -26.2032
lfemur -25.8392 -18.9547 -16.8764
ltibia 26.8205
lfoot -17.8923 -20.34
ltoes -2.99662
1423
root -0.94711 15.8055 -3.86417 -335.005 281.804 -11.1978
lowerback -4.94505 0.0190632 0.42473
upperback -6.17146 -0.154135 -0.406567
thorax -3.59457 -0.172661 -0.655231
lowerneck -7.81884 12.6798 18.0621
upperneck 32.9409 19.3465 -15.5838
head 16.8246 8.47832 -6.42403
rclavicle -1.86733e-014 9.14409e-015
rhumerus -36.2668 10.2595 -83.4706
rradius 33.7813
rwrist 0.198264
rhand -13.7862 -0.913613
rfingers 7.12502
rthumb 12.3353 -30.5297
lclavicle -1.86733e-014 9.14409e-015
lhumerus -45.2378 -7.01642 81.6412
lradius 61.3099
lwrist -8.59231
lhand -10.5423 12.503
lfingers 7.12502
lthumb 15.4613 41.9047
rfemur -29.6164 24.2699 8.21855
rtibia 31.3326
rfoot -28.7211 18.0654
rtoes -25.9441
lfemur -26.3966 -19.509 -16.3282
ltibia 27.208
lfoot -17.9772 -21.0501
ltoes -4.05701
1424
root -0.958519 15.7989 -3.92873 -336.426 283.653 -9.73575
lowerback -4.93374 -0.0444684 0.609421
upperback -6.15139 -0.236051 -0.331279
thorax -3.58156 -0.217134 -0.682545
lowerneck -7.84581 12.6641 17.9957
upperneck 32.9715 19.3841 -15.6282
head 16.8546 8.48971 -6.42431
rclavicle 2.46741e-014 5.96354e-015
rhumerus -36.3809 9.87538 -83.0422
rradius 33.4754
rwrist 0.515083
rhand -13.7194 -0.740035
rfingers 7.12502
rthumb 12.3996 -30.3523
lclavicle 2.46741e-014 5.96354e-015
lhumerus -45.2115 -6.76413 81.117
lradius 60.9222
lwrist -9.07631
lhand -10.7062 12.7129
lfingers 7.12502
lthumb 15.3035 42.1267
rfemur -29.1474 24.0556 8.55692
rtibia 30.9629
rfoot -27.947 18.5126
rtoes -25.3562
lfemur -26.9619 -20.1216 -15.8126
ltibia 27.5797
lfoot -18.004 -21.7807
ltoes -5.06596
